<?xml version="1.0" standalone="no"?>
<!DOCTYPE svg PUBLIC "-//W3C//DTD SVG 20010904//EN"
 "http://www.w3.org/TR/2001/REC-SVG-20010904/DTD/svg10.dtd">
<svg version="1.0" xmlns="http://www.w3.org/2000/svg"
 width="181.000000pt" height="183.000000pt" viewBox="0 0 181.000000 183.000000"
 preserveAspectRatio="xMidYMid meet">
<metadata>
Created by potrace 1.16, written by Peter Selinger 2001-2019
</metadata>
<g transform="translate(0.000000,183.000000) scale(0.100000,-0.100000)"
fill="#000000" stroke="none">
<path d="M806 1675 c-31 -41 -56 -84 -56 -95 0 -20 4 -20 127 -18 109 3 128 5
131 19 4 22 -108 169 -129 169 -9 0 -42 -34 -73 -75z"/>
<path d="M526 1582 c-28 -41 -32 -58 -16 -64 6 -2 -1 -19 -15 -38 -14 -18 -25
-38 -25 -42 0 -4 41 -8 90 -8 50 0 90 4 90 9 0 10 -39 62 -55 73 -6 5 -3 8 8
8 9 0 17 5 17 12 0 15 -50 88 -60 88 -4 0 -19 -17 -34 -38z"/>
<path d="M1162 1582 c-35 -44 -40 -62 -16 -62 12 0 8 -10 -15 -39 -17 -21 -31
-42 -31 -45 0 -3 41 -6 90 -6 100 0 105 4 64 57 -19 25 -22 33 -10 33 25 0 19
21 -17 64 l-33 39 -32 -41z"/>
<path d="M743 1470 c-30 -41 -49 -78 -46 -86 4 -12 35 -14 182 -12 208 3 208
4 133 100 l-49 63 -84 3 -85 3 -51 -71z"/>
<path d="M473 1390 c-36 -45 -31 -60 22 -60 41 0 45 -2 45 -25 0 -18 5 -25 20
-25 15 0 20 7 20 25 0 23 4 25 45 25 52 0 55 9 23 57 -22 32 -25 33 -88 32
-59 0 -67 -3 -87 -29z"/>
<path d="M1105 1385 c-15 -19 -24 -39 -20 -45 3 -5 26 -10 51 -10 40 0 44 -2
44 -25 0 -19 5 -25 21 -25 17 0 20 5 17 25 -5 24 -3 25 38 25 23 0 45 4 48 8
3 5 -6 25 -20 45 -24 36 -26 37 -89 37 -61 0 -65 -1 -90 -35z"/>
<path d="M697 1284 c-75 -101 -79 -99 172 -102 205 -2 241 2 241 28 0 4 -23
37 -50 74 l-51 66 -132 0 -132 -1 -48 -65z"/>
<path d="M40 585 l0 -376 93 3 92 3 5 195 5 195 59 -198 59 -197 78 0 77 0 35
112 c20 62 48 154 64 203 l28 90 3 -203 2 -202 90 0 90 0 0 375 0 376 -111 -3
-112 -3 -38 -110 c-21 -60 -57 -166 -80 -233 -23 -68 -45 -120 -49 -115 -6 7
-96 259 -147 416 l-16 47 -114 0 -113 0 0 -375z"/>
<path d="M930 585 l0 -376 93 3 92 3 3 373 2 372 -95 0 -95 0 0 -375z"/>
<path d="M1222 588 l3 -373 92 -3 92 -3 3 128 3 128 95 6 c79 4 102 10 136 32
73 45 108 115 108 212 0 106 -44 182 -128 221 -48 22 -63 24 -229 24 l-177 0
2 -372z m320 185 c18 -17 25 -87 10 -109 -14 -21 -51 -34 -96 -34 l-46 0 0 78
c0 43 3 82 8 86 11 12 105 -4 124 -21z"/>
</g>
</svg>
